<?xml version="1.0" standalone="no"?>
<!DOCTYPE svg PUBLIC "-//W3C//DTD SVG 20010904//EN"
 "http://www.w3.org/TR/2001/REC-SVG-20010904/DTD/svg10.dtd">
<svg version="1.0" xmlns="http://www.w3.org/2000/svg"
 width="319.000000pt" height="319.000000pt" viewBox="0 0 319.000000 319.000000"
 preserveAspectRatio="xMidYMid meet">
<metadata>
Created by potrace 1.16, written by Peter Selinger 2001-2019
</metadata>
<g transform="translate(0.000000,319.000000) scale(0.100000,-0.100000)"
fill="#000000" stroke="none">
<path d="M513 3154 c-71 -59 -84 -85 -89 -172 -2 -42 -8 -78 -14 -80 -5 -2
-10 -11 -10 -21 0 -9 -13 -41 -28 -71 -42 -82 -62 -147 -62 -206 0 -34 -5 -56
-14 -61 -21 -12 -30 -101 -30 -308 -1 -199 21 -594 35 -632 11 -29 25 -29 33
-1 4 17 8 20 17 11 13 -13 16 -293 3 -358 -15 -79 0 -267 22 -286 8 -7 17 -9
20 -6 3 3 10 68 15 144 5 76 14 170 20 209 8 51 8 77 1 91 -8 14 -8 31 -1 57
7 26 7 47 0 68 -6 17 -11 32 -11 33 0 10 66 13 76 4 8 -6 23 -9 34 -6 15 4 27
-3 42 -24 12 -16 29 -29 37 -29 9 0 30 -15 46 -32 31 -32 97 -67 128 -68 9 0
17 -7 17 -15 0 -30 53 -40 105 -19 17 7 18 6 8 -8 -7 -8 -10 -17 -7 -21 7 -7
94 30 116 49 11 11 18 12 23 4 4 -7 20 0 45 20 30 24 55 65 117 189 58 118 83
161 98 164 18 3 14 -6 -22 -61 -24 -35 -43 -70 -43 -79 0 -8 -11 -28 -25 -45
-14 -16 -25 -40 -25 -54 0 -28 3 -29 36 -8 23 16 62 74 49 74 -4 0 3 12 14 26
12 15 21 33 21 41 0 8 12 29 26 46 18 22 25 39 22 59 -3 15 -1 28 3 28 5 0 13
17 18 37 8 28 7 52 -5 98 -22 90 -22 89 -39 75 -12 -10 -15 -10 -15 3 0 34
-49 75 -103 86 -106 20 -145 20 -168 0 -28 -24 -39 -24 -91 4 -35 18 -61 22
-143 24 -86 2 -111 -2 -177 -25 -42 -15 -89 -36 -105 -48 l-28 -21 38 -24 c41
-27 49 -44 15 -36 -12 4 -28 1 -35 -5 -9 -7 -14 -6 -19 6 -8 21 -32 20 -57 -1
-20 -18 -20 -18 -1 15 10 19 31 48 47 65 15 17 27 35 27 41 0 6 15 33 34 59
19 27 38 63 42 80 3 17 12 37 19 44 16 15 14 154 -2 193 -11 26 -9 33 30 76
11 13 15 24 8 28 -13 9 4 68 24 79 8 4 15 16 15 25 1 100 168 262 269 262 18
0 44 8 58 17 19 13 46 17 97 16 39 0 80 0 91 0 77 1 107 -1 161 -11 34 -5 76
-18 95 -27 28 -15 47 -16 119 -10 113 9 331 12 336 4 2 -4 34 -10 71 -13 98
-10 328 -93 348 -126 4 -6 15 -10 26 -10 16 0 19 -5 14 -20 -5 -15 0 -21 22
-25 42 -10 75 -28 80 -45 3 -8 13 -33 24 -55 25 -55 33 -93 22 -108 -15 -19
-37 -123 -29 -136 4 -6 2 -11 -4 -11 -7 0 -10 -7 -6 -15 3 -9 0 -15 -9 -15 -8
0 -15 -8 -16 -17 -6 -116 -6 -154 1 -158 5 -3 7 -12 4 -19 -3 -8 -1 -17 5 -21
6 -3 11 -17 11 -31 0 -13 11 -34 25 -46 14 -12 25 -29 25 -38 0 -9 9 -25 20
-35 14 -13 20 -31 20 -61 0 -23 5 -44 11 -46 14 -5 39 -74 39 -110 0 -15 -8
-31 -17 -37 -16 -9 -16 -12 -3 -21 8 -5 21 -8 28 -5 6 2 12 -2 12 -10 0 -8 8
-18 18 -24 13 -7 5 -10 -33 -10 -27 0 -66 -5 -85 -10 -45 -14 -53 -4 -53 61 2
130 -120 249 -307 301 -114 31 -435 61 -532 50 -54 -6 -98 -39 -99 -75 0 -13
-2 -32 -5 -43 -9 -42 0 -162 16 -224 11 -41 4 -54 -15 -27 -16 21 -40 12 -30
-13 4 -9 9 -28 11 -42 4 -34 31 -113 56 -166 27 -57 90 -113 127 -113 17 0 32
-4 36 -9 8 -13 88 -67 136 -91 74 -38 186 -53 271 -37 15 3 53 17 85 31 32 13
68 27 79 31 31 8 122 108 129 141 4 16 15 49 26 74 11 25 22 56 24 69 7 40 25
53 63 46 54 -10 70 -25 74 -69 6 -52 -23 -220 -44 -266 -37 -79 -50 -137 -52
-240 -3 -112 10 -173 44 -218 25 -31 25 -57 0 -157 -40 -157 -155 -345 -212
-345 -10 0 -18 -3 -18 -7 0 -5 -21 -17 -48 -27 -26 -11 -54 -25 -62 -32 -8 -8
-29 -26 -47 -41 -87 -77 -219 -153 -264 -153 -15 0 -29 -7 -33 -15 -3 -8 -14
-15 -24 -15 -10 0 -23 -5 -30 -12 -15 -15 -38 4 -44 36 -4 19 -1 22 15 18 16
-4 18 -1 12 19 -4 13 -15 36 -26 51 -21 30 -23 38 -10 38 5 0 13 -9 16 -21 4
-11 12 -18 17 -17 15 5 19 36 9 80 -5 23 -5 40 2 47 7 7 6 15 -3 26 -15 18
-37 20 -43 3 -2 -7 -8 -10 -12 -5 -5 4 -3 13 3 19 13 13 16 58 4 58 -4 0 -13
-5 -20 -12 -9 -9 -16 -8 -29 4 -17 15 -20 15 -45 -5 -28 -22 -26 -39 4 -50 9
-3 24 -22 33 -41 15 -32 16 -37 1 -51 -8 -9 -13 -22 -10 -30 4 -8 -1 -18 -10
-21 -18 -7 -21 -35 -5 -51 6 -6 9 -17 6 -25 -3 -8 -9 -4 -17 14 -15 31 -74 48
-65 18 4 -14 1 -16 -20 -12 -21 4 -25 1 -25 -20 0 -13 -5 -29 -10 -34 -6 -6
-12 -20 -15 -32 -3 -20 0 -22 41 -22 26 0 44 5 44 11 0 8 4 8 14 0 9 -8 151
-10 507 -9 l493 3 23 45 c13 25 28 72 34 105 11 67 16 239 7 271 -11 39 -38
95 -58 124 -27 38 -26 47 14 67 70 37 121 132 127 238 l4 60 -55 0 c-52 0 -55
1 -56 25 0 14 4 31 10 38 5 8 11 24 11 35 1 12 11 43 23 69 16 37 30 50 64 66
61 27 76 49 81 114 3 30 7 60 10 65 10 16 67 3 67 -15 0 -47 32 44 52 148 5
30 14 59 19 65 5 5 9 28 9 52 0 38 3 43 23 43 13 1 36 17 58 43 28 33 37 54
42 94 3 28 10 60 16 71 8 14 11 228 11 691 l0 671 -1317 0 -1318 -1 -42 -35z
m197 -16 c0 -4 -9 -8 -20 -8 -20 0 -28 29 -13 44 7 7 33 -21 33 -36z m-43 -24
c-3 -3 -12 -4 -19 -1 -8 3 -5 6 6 6 11 1 17 -2 13 -5z m2407 -175 c13 -20 14
-20 19 -2 3 15 6 12 17 -12 7 -16 12 -35 11 -41 -1 -7 5 -14 14 -17 17 -7 9
-37 -10 -37 -18 0 -65 58 -65 80 0 10 -4 22 -10 25 -5 3 -10 10 -10 16 0 16
18 10 34 -12z m-554 -19 c0 -5 -2 -10 -4 -10 -3 0 -8 5 -11 10 -3 6 -1 10 4
10 6 0 11 -4 11 -10z m-118 -142 c-7 -7 -12 -8 -12 -2 0 14 12 26 19 19 2 -3
-1 -11 -7 -17z m-1078 -855 c-4 -32 -8 -65 -10 -73 -1 -8 -3 -18 -3 -22 -2
-17 -20 -7 -26 15 -4 12 -18 34 -32 49 l-25 26 37 -2 c20 -1 41 4 47 11 7 9 7
13 -1 13 -24 0 -10 32 17 39 2 1 0 -25 -4 -56z m786 12 c0 -8 -4 -15 -9 -15
-13 0 -22 16 -14 24 11 11 23 6 23 -9z m-150 -26 c0 -5 -7 -12 -16 -16 -11 -4
-13 -13 -9 -33 4 -18 1 -31 -9 -40 -24 -19 -31 13 -12 54 9 19 16 39 16 45 0
6 7 8 15 5 8 -4 15 -10 15 -15z m-1560 -39 c-6 -11 -8 -20 -4 -20 3 0 1 -6 -5
-13 -6 -8 -7 -17 -3 -21 4 -4 0 -6 -8 -4 -20 4 -30 19 -30 45 0 20 6 23 53 32
4 0 3 -8 -3 -19z m622 -65 c0 -5 -5 -11 -11 -13 -6 -2 -11 4 -11 13 0 9 5 15
11 13 6 -2 11 -8 11 -13z m-44 -22 c-5 -25 -28 -28 -28 -4 0 12 6 21 16 21 9
0 14 -7 12 -17z m712 -13 c0 -5 -5 -10 -11 -10 -5 0 -7 5 -4 10 3 6 8 10 11
10 2 0 4 -4 4 -10z m-36 -9 c7 -10 -22 -37 -30 -28 -9 8 3 37 15 37 5 0 12 -4
15 -9z m1000 -1404 c3 -43 8 -82 11 -86 2 -5 -1 -21 -9 -36 -8 -14 -16 -23
-19 -18 -3 5 -2 15 2 22 5 7 4 31 0 52 -5 22 -12 59 -15 81 -2 23 -7 44 -9 47
-3 2 0 10 7 18 18 22 26 3 32 -80z m-1019 -325 c-3 -3 -11 0 -18 7 -9 10 -8
11 6 5 10 -3 15 -9 12 -12z m65 4 c0 -3 -4 -8 -10 -11 -5 -3 -10 -1 -10 4 0 6
5 11 10 11 6 0 10 -2 10 -4z"/>
<path d="M2350 2722 c0 -5 6 -17 14 -28 11 -14 18 -16 26 -8 8 8 7 15 -5 28
-18 17 -35 21 -35 8z"/>
<path d="M1340 2080 c0 -5 5 -10 10 -10 6 0 10 5 10 10 0 6 -4 10 -10 10 -5 0
-10 -4 -10 -10z"/>
<path d="M1515 2081 c-6 -11 9 -23 19 -14 9 9 7 23 -3 23 -6 0 -12 -4 -16 -9z"/>
<path d="M2510 1680 c0 -11 5 -20 10 -20 6 0 10 9 10 20 0 11 -4 20 -10 20 -5
0 -10 -9 -10 -20z"/>
<path d="M1596 1341 c-3 -5 2 -15 11 -22 34 -28 73 -103 73 -139 0 -48 -31
-76 -93 -84 -29 -5 -55 -16 -67 -29 -23 -24 -23 -27 -10 -47 9 -13 12 -13 24
3 8 11 31 20 56 22 23 2 52 10 64 19 30 19 56 75 56 120 0 76 -89 198 -114
157z"/>
<path d="M735 1320 c-11 -18 5 -30 40 -30 43 0 52 14 19 29 -31 14 -51 14 -59
1z"/>
<path d="M849 1319 c-10 -6 -11 -11 -3 -19 7 -7 16 -6 28 3 16 12 16 15 4 19
-8 4 -21 2 -29 -3z"/>
<path d="M1141 1231 c-16 -10 -6 -31 14 -31 7 0 30 -18 51 -40 39 -41 59 -49
67 -27 7 22 -14 53 -56 80 -44 29 -54 31 -76 18z"/>
<path d="M1479 1181 c-56 -8 -97 -33 -105 -66 -7 -30 1 -43 33 -56 21 -8 30
-6 48 11 12 11 28 20 36 20 9 0 26 11 39 25 13 14 34 25 47 25 13 0 23 6 23
13 0 14 -42 38 -63 36 -7 -1 -33 -5 -58 -8z"/>
<path d="M3148 1102 c-20 -20 -62 -59 -92 -87 -31 -27 -56 -54 -56 -59 0 -13
-41 -98 -55 -116 -7 -8 -15 -27 -19 -42 -3 -15 -34 -55 -68 -89 -78 -78 -113
-148 -102 -204 4 -22 8 -81 8 -132 1 -50 5 -95 9 -99 10 -11 142 128 168 176
27 51 40 65 76 84 46 23 139 140 158 196 12 37 15 85 13 228 l-3 182 -37 -38z"/>
<path d="M1163 1021 c-24 -21 -43 -43 -43 -47 0 -5 -7 -22 -15 -38 -21 -39 -2
-62 24 -30 9 12 28 25 42 29 34 11 49 25 49 46 0 11 4 19 9 19 17 0 20 29 5
45 -21 20 -23 20 -71 -24z"/>
<path d="M1457 1033 c-14 -13 -6 -39 18 -65 21 -23 22 -28 10 -38 -8 -7 -15
-16 -15 -21 0 -12 59 -64 73 -65 32 -3 66 -25 69 -45 3 -25 28 -39 28 -16 0 9
-6 18 -12 20 -10 4 -10 6 0 6 7 1 18 -10 24 -24 7 -16 17 -24 26 -20 8 3 21 0
28 -6 11 -9 18 -8 29 1 12 10 20 8 42 -10 31 -24 41 -56 15 -45 -9 4 -56 8
-103 9 -50 0 -92 6 -100 13 -8 7 -24 12 -34 11 -11 -1 -46 4 -78 11 -32 7 -65
10 -72 7 -8 -3 -27 -1 -42 3 -15 5 -95 14 -178 21 -91 7 -176 19 -216 31 -74
23 -122 22 -127 -1 -3 -17 40 -40 75 -40 13 0 23 -4 23 -9 0 -16 33 -22 160
-31 69 -5 141 -14 160 -21 19 -6 53 -18 75 -25 23 -8 70 -14 106 -14 66 0 176
-23 194 -41 13 -13 79 -11 109 2 20 9 29 9 41 -1 11 -9 19 -9 28 -2 7 6 37 13
66 17 68 7 71 10 71 46 0 28 -8 34 -38 30 -8 -1 -20 3 -27 9 -17 14 -38 3 -31
-16 3 -8 0 -11 -9 -8 -16 6 -27 35 -31 78 -2 31 -43 70 -83 81 -14 3 -42 25
-63 47 -35 37 -40 39 -56 26 -35 -31 -49 -28 -76 13 -15 21 -31 39 -36 39 -6
0 -10 11 -10 25 0 24 -18 34 -33 18z m174 -139 l24 -26 -27 13 c-16 7 -28 18
-28 26 0 18 3 17 31 -13z"/>
<path d="M1025 950 c-3 -5 1 -10 10 -10 9 0 13 5 10 10 -3 6 -8 10 -10 10 -2
0 -7 -4 -10 -10z"/>
<path d="M1375 951 c-3 -5 0 -13 6 -16 5 -4 8 -13 5 -20 -3 -8 3 -19 12 -26 9
-8 14 -10 10 -5 -4 5 -3 17 2 27 7 13 6 22 -6 33 -18 19 -21 19 -29 7z"/>
<path d="M970 925 c0 -8 7 -15 15 -15 8 0 15 7 15 15 0 8 -7 15 -15 15 -8 0
-15 -7 -15 -15z"/>
<path d="M1277 919 c-9 -12 -13 -25 -9 -29 4 -3 13 -17 19 -32 15 -34 57 -38
73 -9 15 29 12 41 -9 41 -11 0 -28 12 -39 26 l-19 27 -16 -24z"/>
<path d="M1160 910 c0 -5 5 -10 10 -10 6 0 10 5 10 10 0 6 -4 10 -10 10 -5 0
-10 -4 -10 -10z"/>
<path d="M831 871 c-29 -26 -35 -51 -11 -51 12 0 52 58 48 71 -2 5 -18 -3 -37
-20z"/>
<path d="M750 825 c-9 -11 -10 -19 -3 -26 16 -16 55 -1 51 19 -4 23 -32 26
-48 7z"/>
<path d="M1880 600 c0 -5 7 -10 15 -10 8 0 15 5 15 10 0 6 -7 10 -15 10 -8 0
-15 -4 -15 -10z"/>
<path d="M1173 553 c-7 -2 -13 -11 -13 -18 0 -7 -5 -15 -12 -17 -6 -2 -8 -10
-4 -17 5 -7 14 -10 22 -7 8 3 14 1 14 -4 0 -19 48 -60 63 -54 8 3 18 0 22 -6
5 -8 14 -5 30 10 25 23 50 19 58 -11 5 -17 11 -19 44 -13 21 3 46 13 55 22 15
12 20 13 33 2 14 -11 19 -10 37 7 17 17 18 24 8 43 -8 14 -18 20 -30 17 -11
-3 -24 1 -31 9 -17 21 -50 18 -42 -3 4 -12 -5 -8 -26 12 -27 25 -34 28 -51 17
-16 -10 -26 -10 -48 1 -30 15 -41 15 -59 4 -8 -5 -13 -4 -13 2 0 11 -35 14
-57 4z"/>
<path d="M1865 500 c-7 -12 2 -30 16 -30 12 0 12 27 0 35 -5 3 -12 1 -16 -5z"/>
<path d="M845 409 c-10 -15 1 -23 20 -15 9 3 13 10 10 16 -8 13 -22 13 -30 -1z"/>
<path d="M823 368 c-6 -7 -14 -23 -17 -35 -10 -33 21 -30 36 2 13 30 -1 55
-19 33z"/>
<path d="M1840 330 c0 -5 7 -10 16 -10 8 0 12 5 9 10 -3 6 -10 10 -16 10 -5 0
-9 -4 -9 -10z"/>
<path d="M818 290 c-29 -29 -36 -64 -18 -75 8 -5 7 -11 0 -20 -14 -16 -5 -35
15 -35 11 0 13 -8 9 -29 -3 -16 -1 -32 5 -35 6 -4 8 -20 4 -37 -5 -26 -3 -29
13 -23 11 4 25 11 32 17 8 7 12 5 12 -6 0 -9 -10 -17 -22 -19 -12 -2 -23 -9
-26 -15 -3 -10 20 -13 90 -13 l93 0 11 45 c14 59 0 68 -38 26 -15 -17 -28 -26
-28 -20 0 6 14 27 30 46 17 18 30 40 30 48 0 25 -30 17 -40 -10 l-10 -26 -21
20 c-19 17 -20 24 -10 52 16 47 14 51 -23 48 -47 -4 -68 15 -60 57 8 43 -10
44 -48 4z m92 -135 c0 -14 -4 -25 -9 -25 -5 0 -8 11 -8 25 0 14 3 25 8 25 5 0
9 -11 9 -25z"/>
<path d="M541 268 c-22 -23 -30 -40 -28 -56 6 -30 -11 -38 -98 -47 -95 -10
-105 -16 -98 -63 4 -25 17 -48 40 -69 l34 -33 110 0 109 0 1 38 c5 135 -5 235
-26 252 -10 8 -20 4 -44 -22z"/>
<path d="M914 289 c-10 -17 13 -36 27 -22 12 12 4 33 -11 33 -5 0 -12 -5 -16
-11z"/>
<path d="M460 220 c0 -5 7 -10 15 -10 8 0 15 5 15 10 0 6 -7 10 -15 10 -8 0
-15 -4 -15 -10z"/>
<path d="M1630 221 c0 -12 26 -32 33 -25 9 10 -4 34 -19 34 -8 0 -14 -4 -14
-9z"/>
<path d="M1510 176 c0 -10 9 -16 25 -16 14 0 25 5 25 11 0 5 -5 7 -10 4 -6 -4
-17 -1 -25 5 -12 10 -15 9 -15 -4z"/>
<path d="M1470 100 c0 -5 5 -10 11 -10 5 0 7 5 4 10 -3 6 -8 10 -11 10 -2 0
-4 -4 -4 -10z"/>
<path d="M1136 46 c-21 -33 -20 -46 4 -46 13 0 22 9 26 26 10 37 -9 50 -30 20z"/>
<path d="M1530 55 c0 -9 6 -12 15 -9 8 4 12 10 9 15 -8 14 -24 10 -24 -6z"/>
<path d="M1051 31 c-15 -28 -14 -31 13 -31 18 0 23 5 22 22 -1 29 -22 34 -35
9z"/>
<path d="M1197 43 c-12 -12 -7 -43 7 -43 13 0 26 20 26 41 0 10 -23 12 -33 2z"/>
<path d="M1464 35 c-3 -7 -12 -11 -20 -8 -8 3 -14 -1 -14 -11 0 -12 10 -16 39
-16 34 0 38 3 34 19 -6 25 -32 35 -39 16z"/>
<path d="M1250 15 c0 -9 9 -15 21 -15 18 0 19 2 9 15 -7 8 -16 15 -21 15 -5 0
-9 -7 -9 -15z"/>
</g>
</svg>
